<svg xmlns="http://www.w3.org/2000/svg" viewBox="0 0 512 512">
  <defs>
    <linearGradient id="bg" x1="0%" y1="0%" x2="100%" y2="100%">
      <stop offset="0%" style="stop-color:#aa44aa"/>
      <stop offset="100%" style="stop-color:#6a2475"/>
    </linearGradient>
  </defs>
  <!-- Background -->
  <rect width="512" height="512" rx="64" fill="url(#bg)"/>
  <!-- Chess Knight (simplified) -->
  <g transform="translate(96, 64) scale(0.625)">
    <path fill="#ffffff" d="M226.344 16.688L192 89.97l-31.688-24.126-8.624 11.312 38.187 29.094L159.78 168l-31.468-23.97-8.624 11.314 49.937 38.03v38.47l-9.5 50.937L106.5 384.095V480h299V384.126l-53.625-101.344-9.5-50.937v-81.72l-24.063 16.063-56.562-91.47L296.438 48l-8.625-11.313-47.094 35.876-14.375-55.876zm29.25 62.218l49.344 79.813 29.687-19.814v93.938l11.406 61.094L391.5 384.126V464h-27v-79.875l-51.375 11.094-6.25-13.626 38.156-35.28-10.186-11-39.594 36.624-6.906-15.062 17.03-15.75-10.186-11L276 348.25l-6.906-15.063 27.562-25.5-10.187-11-28.44 26.313-6.906-15.063 8.094-7.5-10.188-10.968-8.81 8.155-17.75-38.688 95.53-21.53-3.125-13.75L197.5 249.72v-27.876l-11.406-61.094-1.875-10.03 41.53-24.657-22.155-46.47zm-95.625 250.5l16.936 36.906L135.5 384.095V464h-13v-79.875l28.47-54.72zm152.593 54.563L344.5 384.126V464h-40.844l8.406-80.03z"/>
  </g>
</svg>

